<mxfile host="app.diagrams.net" agent="Mozilla/5.0 (Windows NT 10.0; Win64; x64) AppleWebKit/537.36 (KHTML, like Gecko) Chrome/127.0.0.0 Safari/537.36" version="24.7.7">
  <diagram name="Page-1" id="pHi1z0P5Smg4DfGFVEEM">
    <mxGraphModel dx="1434" dy="746" grid="1" gridSize="10" guides="1" tooltips="1" connect="1" arrows="1" fold="1" page="1" pageScale="1" pageWidth="850" pageHeight="1100" math="0" shadow="0">
      <root>
        <mxCell id="0" />
        <mxCell id="1" parent="0" />
        <mxCell id="HZuo-56DzkYc_oCzNzUb-3" style="edgeStyle=orthogonalEdgeStyle;rounded=0;orthogonalLoop=1;jettySize=auto;html=1;entryX=0;entryY=0.5;entryDx=0;entryDy=0;" edge="1" parent="1" source="HZuo-56DzkYc_oCzNzUb-1" target="HZuo-56DzkYc_oCzNzUb-2">
          <mxGeometry relative="1" as="geometry" />
        </mxCell>
        <mxCell id="HZuo-56DzkYc_oCzNzUb-1" value="api" style="rounded=0;whiteSpace=wrap;html=1;" vertex="1" parent="1">
          <mxGeometry x="170" y="30" width="120" height="60" as="geometry" />
        </mxCell>
        <mxCell id="HZuo-56DzkYc_oCzNzUb-2" value="solicitacao de venda" style="rounded=0;whiteSpace=wrap;html=1;" vertex="1" parent="1">
          <mxGeometry x="240" y="140" width="120" height="60" as="geometry" />
        </mxCell>
        <mxCell id="HZuo-56DzkYc_oCzNzUb-19" style="edgeStyle=orthogonalEdgeStyle;rounded=0;orthogonalLoop=1;jettySize=auto;html=1;entryX=0;entryY=0.5;entryDx=0;entryDy=0;" edge="1" parent="1" source="HZuo-56DzkYc_oCzNzUb-4" target="HZuo-56DzkYc_oCzNzUb-15">
          <mxGeometry relative="1" as="geometry" />
        </mxCell>
        <mxCell id="HZuo-56DzkYc_oCzNzUb-4" value="adicionar/remover produtos" style="rounded=0;whiteSpace=wrap;html=1;" vertex="1" parent="1">
          <mxGeometry x="20" y="250" width="120" height="60" as="geometry" />
        </mxCell>
        <mxCell id="HZuo-56DzkYc_oCzNzUb-11" style="edgeStyle=orthogonalEdgeStyle;rounded=0;orthogonalLoop=1;jettySize=auto;html=1;" edge="1" parent="1" source="HZuo-56DzkYc_oCzNzUb-6" target="HZuo-56DzkYc_oCzNzUb-8">
          <mxGeometry relative="1" as="geometry" />
        </mxCell>
        <mxCell id="HZuo-56DzkYc_oCzNzUb-12" style="edgeStyle=orthogonalEdgeStyle;rounded=0;orthogonalLoop=1;jettySize=auto;html=1;" edge="1" parent="1" source="HZuo-56DzkYc_oCzNzUb-6" target="HZuo-56DzkYc_oCzNzUb-9">
          <mxGeometry relative="1" as="geometry" />
        </mxCell>
        <mxCell id="HZuo-56DzkYc_oCzNzUb-6" value="pagamento aprovado" style="rounded=0;whiteSpace=wrap;html=1;" vertex="1" parent="1">
          <mxGeometry x="210" y="340" width="120" height="60" as="geometry" />
        </mxCell>
        <mxCell id="HZuo-56DzkYc_oCzNzUb-14" style="edgeStyle=orthogonalEdgeStyle;rounded=0;orthogonalLoop=1;jettySize=auto;html=1;" edge="1" parent="1" source="HZuo-56DzkYc_oCzNzUb-8" target="HZuo-56DzkYc_oCzNzUb-13">
          <mxGeometry relative="1" as="geometry" />
        </mxCell>
        <mxCell id="HZuo-56DzkYc_oCzNzUb-8" value="enviado transportadora" style="rounded=0;whiteSpace=wrap;html=1;" vertex="1" parent="1">
          <mxGeometry x="210" y="450" width="120" height="60" as="geometry" />
        </mxCell>
        <mxCell id="HZuo-56DzkYc_oCzNzUb-9" value="cancelado" style="rounded=0;whiteSpace=wrap;html=1;" vertex="1" parent="1">
          <mxGeometry x="630" y="140" width="120" height="60" as="geometry" />
        </mxCell>
        <mxCell id="HZuo-56DzkYc_oCzNzUb-10" style="edgeStyle=orthogonalEdgeStyle;rounded=0;orthogonalLoop=1;jettySize=auto;html=1;entryX=-0.008;entryY=0.617;entryDx=0;entryDy=0;entryPerimeter=0;" edge="1" parent="1" source="HZuo-56DzkYc_oCzNzUb-2" target="HZuo-56DzkYc_oCzNzUb-9">
          <mxGeometry relative="1" as="geometry" />
        </mxCell>
        <mxCell id="HZuo-56DzkYc_oCzNzUb-13" value="entregue" style="rounded=0;whiteSpace=wrap;html=1;" vertex="1" parent="1">
          <mxGeometry x="210" y="550" width="120" height="60" as="geometry" />
        </mxCell>
        <mxCell id="HZuo-56DzkYc_oCzNzUb-18" style="edgeStyle=orthogonalEdgeStyle;rounded=0;orthogonalLoop=1;jettySize=auto;html=1;" edge="1" parent="1" source="HZuo-56DzkYc_oCzNzUb-15" target="HZuo-56DzkYc_oCzNzUb-6">
          <mxGeometry relative="1" as="geometry" />
        </mxCell>
        <mxCell id="HZuo-56DzkYc_oCzNzUb-20" style="edgeStyle=orthogonalEdgeStyle;rounded=0;orthogonalLoop=1;jettySize=auto;html=1;" edge="1" parent="1" source="HZuo-56DzkYc_oCzNzUb-15" target="HZuo-56DzkYc_oCzNzUb-9">
          <mxGeometry relative="1" as="geometry" />
        </mxCell>
        <mxCell id="HZuo-56DzkYc_oCzNzUb-15" value="aguardando pagamento" style="rounded=0;whiteSpace=wrap;html=1;" vertex="1" parent="1">
          <mxGeometry x="210" y="250" width="120" height="60" as="geometry" />
        </mxCell>
        <mxCell id="HZuo-56DzkYc_oCzNzUb-16" style="edgeStyle=orthogonalEdgeStyle;rounded=0;orthogonalLoop=1;jettySize=auto;html=1;entryX=0.592;entryY=0.05;entryDx=0;entryDy=0;entryPerimeter=0;" edge="1" parent="1" source="HZuo-56DzkYc_oCzNzUb-2" target="HZuo-56DzkYc_oCzNzUb-15">
          <mxGeometry relative="1" as="geometry" />
        </mxCell>
      </root>
    </mxGraphModel>
  </diagram>
</mxfile>
